<svg width="24" height="24" viewBox="0 0 24 24" fill="none" xmlns="http://www.w3.org/2000/svg">
<path fill-rule="evenodd" clip-rule="evenodd" d="M22.7368 24C23.0719 24 23.3931 23.8194 23.63 23.4979C23.8669 23.1764 24 22.7404 24 22.2857C24 21.8311 23.8669 21.395 23.63 21.0735C23.3931 20.752 23.0719 20.5714 22.7368 20.5714H1.26316C0.928149 20.5714 0.606859 20.752 0.369971 21.0735C0.133082 21.395 1.987e-08 21.8311 0 22.2857C-1.988e-08 22.7404 0.133082 23.1764 0.36997 23.4979C0.606858 23.8194 0.928149 24 1.26316 24H22.7368ZM24 12C24 12.4547 23.8669 12.8907 23.63 13.2122C23.3931 13.5337 23.0719 13.7143 22.7368 13.7143H1.26316C0.928149 13.7143 0.606859 13.5337 0.369971 13.2122C0.133083 12.8907 4.2973e-07 12.4547 4.496e-07 12C4.6947e-07 11.5453 0.133083 11.1093 0.369971 10.7878C0.606859 10.4663 0.928149 10.2857 1.26316 10.2857H22.7368C23.0719 10.2857 23.3931 10.4663 23.63 10.7878C23.8669 11.1093 24 11.5453 24 12ZM24 1.71429C24 2.16894 23.8669 2.60498 23.63 2.92647C23.3931 3.24796 23.0719 3.42857 22.7368 3.42857H1.26316C0.928149 3.42857 0.606859 3.24796 0.369971 2.92647C0.133083 2.60498 8.7933e-07 2.16894 8.992e-07 1.71428C9.1908e-07 1.25963 0.133083 0.823594 0.369971 0.502103C0.606859 0.180612 0.92815 -1.4641e-08 1.26316 0L22.7368 9.38645e-07C23.0719 9.53288e-07 23.3931 0.180613 23.63 0.502104C23.8669 0.823595 24 1.25963 24 1.71429Z" fill="#9E9AA7"/>
</svg>
